<?xml version="1.0" encoding="UTF-8"?>
<svg id="Layer_1" data-name="Layer 1" xmlns="http://www.w3.org/2000/svg" viewBox="0 0 143.26 89.73">
  <defs>
    <style>
      .cls-1 {
        fill: #fff;
      }

      .cls-2, .cls-3, .cls-4, .cls-5, .cls-6, .cls-7, .cls-8, .cls-9 {
        fill: none;
      }

      .cls-2, .cls-3, .cls-4, .cls-9 {
        stroke-linecap: round;
        stroke-linejoin: round;
      }

      .cls-2, .cls-4, .cls-5, .cls-6, .cls-7, .cls-8, .cls-9 {
        stroke: #000;
      }

      .cls-2, .cls-6 {
        stroke-width: .6px;
      }

      .cls-3 {
        stroke: #fff;
        stroke-width: 2px;
      }

      .cls-4 {
        stroke-width: .2px;
      }

      .cls-5 {
        stroke-width: .9px;
      }

      .cls-7 {
        stroke-width: .3px;
      }

      .cls-8 {
        stroke-width: .28px;
      }

      .cls-9 {
        stroke-width: .4px;
      }
    </style>
  </defs>
  <path class="cls-1" d="M8.45,30.36c0,1.22-.04,15.2,1.27,26.15,0,0-.1,2.45,2.64,5.09l2.55,2.55,53.88,15.93s1.76,.59,3.23-.59l4.45-3.63s1.86-1.42,1.91-3.08v-.84l-.02-.03c.49-1,.56-1.73,.56-1.73,.33-2.83,2.72-24.47,1.81-50.41,0,0-.05-1.53-2.62-2.45-.39-.14-.77-.48-.77-.48-.38-.5-1.71-.74-1.71-.74l-35.22-5.13-.06-.11c-2.75-4.06-7.28-6.17-11.44-4.9l-1.87,.57c-1.24,.38-2.34,1.02-3.27,1.86l-.07,.05-1.17,.32h-.1s-1.22-.17-1.22-.17c-.44-.07-1.76,.22-1.76,.22l-6.29,2.48-.07,.03c-3.04,1.3-3.74,4.75-3.74,4.75l-.03,.14c-2.11,3.3-1.99,7.86-1.99,7.86,0,2.68,.45,4.69,1.09,6.18v.12Z"/>
  <path class="cls-5" d="M8.45,30.36c0,1.22-.04,15.2,1.27,26.15,0,0-.1,2.45,2.64,5.09l2.55,2.55,53.88,15.93s1.76,.59,3.23-.59l4.45-3.63s1.86-1.42,1.91-3.08v-.84l-.02-.03c.49-1,.56-1.73,.56-1.73,.33-2.83,2.72-24.47,1.81-50.41,0,0-.05-1.53-2.62-2.45-.39-.14-.77-.48-.77-.48-.38-.5-1.71-.74-1.71-.74l-35.22-5.13-.06-.11c-2.75-4.06-7.28-6.17-11.44-4.9l-1.87,.57c-1.24,.38-2.34,1.02-3.27,1.86l-.07,.05-1.17,.32h-.1s-1.22-.17-1.22-.17c-.44-.07-1.76,.22-1.76,.22l-6.29,2.48-.07,.03c-3.04,1.3-3.74,4.75-3.74,4.75l-.03,.14c-2.11,3.3-1.99,7.86-1.99,7.86,0,2.68,.45,4.69,1.09,6.18v.12Z"/>
  <path class="cls-1" d="M53.99,40.73c.57,.14,1.12,.52,1.48,1.1,.26,.42,.39,.88,.39,1.33v5.16l-.13,.09-1.05,.74c-.49,.48-1.22,.17-1.22,.17-1.36-.37-1.39-2.39-1.39-2.39,.33-.55,.38-1.17,.38-1.17v-3.2c0-.51,.23-.98,.65-1.24l.99-.55-.09-.04"/>
  <path class="cls-1" d="M55.86,48.26v-5.11c0-.44-.13-.9-.39-1.33-.34-.54-.83-.9-1.35-1.06h-.04s-.99,.55-.99,.55c-.42,.26-.65,.74-.65,1.24v3.2s-.05,.62-.38,1.17c0,0,.04,2.02,1.39,2.39,0,0,.73,.3,1.22-.17l1.05-.74,.13-.14"/>
  <path class="cls-1" d="M17.41,10.12v-.69c0-.18-.05-.3-.12-.34l-.53-.12c-.18,0-.33,.03-.33,.03l-3.06,1.21s-.34,.14-.32,.61v.55"/>
  <path class="cls-6" d="M17.41,10.12v-.69c0-.18-.05-.3-.12-.34l-.53-.12c-.18,0-.33,.03-.33,.03l-3.06,1.21s-.34,.14-.32,.61v.55"/>
  <path class="cls-7" d="M15.79,15.47l-2.64-.44s-1.84-.15-3.08,.81m7.2-6.71c-.1-.05-.23-.03-.23-.03l-3.17,1.26s-.34,.14-.32,.61v.29"/>
  <path class="cls-6" d="M17.41,35.44l-4.92-.95s-5.14-1.4-5.14-10.43c0,0-.15-5.36,2.57-8.66l2.13-2.27"/>
  <path class="cls-7" d="M20.59,20.49s-.05-1.1,.99-.89l24.22,4.18s1.2,.31,1.2,1.2v21.55s.16,1.1-1.15,.73l-24.01-5.58s-.57-.21-.62-1.2l-.63-20Zm-1.56-.83s-.07-1.54,1.4-1.25l26.43,4.55s1.69,.44,1.69,1.69v22.9s.22,1.54-1.61,1.03l-26.13-6.17s-.81-.29-.88-1.69l-.88-21.07Zm29.51,1.54s1.69,.66,1.69,2.79v27.31s.22,2.28-2.13,1.69l-28.48-6.97s-1.04-.15-1.49-1.34M50.96,20.39s1.39,1.25,1.39,3.08v14.68m18.06-15.42s-.81,.66-3.74,.22l-15.86-2.79M12.05,13.12s1.47-1.54,4.55-1.1l54.33,9.03s.27,.05,.64,.08"/>
  <polyline class="cls-6" points="46.01 46.31 46.01 24.53 21.8 20.35"/>
  <polyline class="cls-7" points="21.8 20.35 22.47 40.87 46.01 46.31"/>
  <polyline class="cls-6" points="22.33 20.54 22.99 40.36 45.96 45.66"/>
  <line class="cls-7" x1="17.92" y1="15.91" x2="46.77" y2="20.69"/>
  <path class="cls-6" d="M22.84,8.74l52.81,7.34s1.32,.24,1.71,.74c0,0,.37,.34,.77,.48,2.57,.92,2.62,2.45,2.62,2.45,.91,25.94-1.48,47.58-1.81,50.41,0,0-.25,2.5-2.89,4.55"/>
  <path class="cls-7" d="M73.84,19.66c-1.52,1.03-3,.61-3,.61L16.51,11.23s-1.3-.24-3.36,.35m64.34,5.72c-.08,.21-.35,.46-.91,.74l-1.66,1.03"/>
  <path class="cls-6" d="M22.55,8.74l4.08-1.2m48.2,14.02v-1.98c-.04-.48-.59-.51-.59-.51L17.85,10.19c-.29,0-1.54-.15-2.35,.15"/>
  <path class="cls-7" d="M13.11,11.31c-3.19,1.19-3.74,4.75-3.74,4.75"/>
  <path class="cls-6" d="M8.82,45.57l8,1.98s1.03,.22,1.1,1.39l.29,12.11s.07,.88-.73,.73l-5.73-1.76s-1.1-.51-1.69-1.91"/>
  <path class="cls-7" d="M68.06,77.56s.78,1.47,1.47,2.15m-1.57-18.69l-.2,15.17m-3.23-21.73c-3.92-5.48-2.74-17.91-2.74-17.91,0-3.23,2.15-4.4,2.15-4.4l1.76-1.1m1.03-.15c1.84,.37,2.4-.32,2.4-.32,0,0-.56,.83-3.23,2.64,0,0-2.54,1.47-2.74,4.89,0,0-1.37,13.51,3.43,18.79,0,0,1.37,1.37,1.47,3.03m-53.54,2.06l32.21,9.16M14.98,50.8s-.29,.1-.29,.34l.29,6.9s.05,.44,.44,.44m.52-7.45s-.29,.1-.29,.34l.29,6.9s.05,.44,.44,.44"/>
  <path class="cls-6" d="M73.15,23.48s0-.95,.59-1.32l3.38-2.01s.88-.39,.88,.59c0,0,1.3,23.3-1.86,53.32,0,0,0,.81-.73,1.47l-3.3,2.64s-.81,.44-.66-.96c0,0,1.91-23.35,1.71-53.74Z"/>
  <path class="cls-7" d="M77.94,42.38s-.28,10.61-.55,13.18c-.31,2.94-1.69,3.56-1.69,3.56-.28,5.13-.67,10.53-1.18,15.75m1.86-52.59c.03,.07,.05,.17,.05,.32,0,0,.13,6.75-.04,16.64,0,0,1.2,.54,1.49,2.23"/>
  <path class="cls-6" d="M76.38,22.28c-.12-.24-.39-.03-.39-.03l-1.47,.93c-.29,.2-.29,.83-.29,.83,.15,26.73-1.38,47.67-1.71,52.17,0,0-.04,.17-.01,.31"/>
  <path class="cls-7" d="M57.33,51.88c.39-.3,.7-.85,.7-1.79v-7.74s-.07-2.86-2.42-3.41l-3.19-.73m-1.23,.7l3.19,.73c2.35,.55,2.42,3.41,2.42,3.41v7.75c0,.94-.3,1.48-.7,1.79m-4.96-13.9l1.21-.51m-1.47,13.58v-12.85m23.71,20.11l1.1,.11m-10.16-29.56c-.21,.07-.48,.09-.81,.04l-8.57-1.64s-1.29-.37-1.29-1.73v-2.75s-.02-.39,.17-.73m10.54,6.8c-.24,.26-.64,.43-1.3,.34l-8.57-1.64s-1.28-.37-1.28-1.72v-2.75s-.04-.57,.32-.94m17.87,52.79l.58-.46s.2-.24,.25-.59m1.86-35.39l1.07,.05m-1.79,19.77c-.88-1.01-.66-3.08-.66-3.08,.29-7.27,.39-15.22,.39-15.22,.05-1.18,.99-1.52,.99-1.52m.06-16.48c.02,1.58,.1,7.93-.04,16.3m-.73,20.01c-.28,5-.65,10.49-1.14,15.56m-.95,1.92c.02,.14,.11,.23,.35,.09l1.42-1.12s.2-.25,.24-.59"/>
  <path class="cls-6" d="M52.57,40.94c.93-.58,2.23-.19,2.9,.88,.26,.42,.39,.88,.39,1.33v6.44c0,.68-.3,1.32-.87,1.67m-4.11,.81l3.41,.81s1.06,.27,1.8-.3l1.23-.7"/>
  <path class="cls-7" d="M52.9,40.8c-.4,.36-.61,.9-.61,1.47v6.44c0,.44,.12,.91,.39,1.34,.58,.92,1.62,1.35,2.5,1.07m-2.68-.24c.71,.68,1.73,.86,2.49,.38m-2.43-10.32c-.56,.35-.86,.98-.87,1.66v6.44c0,.26,.04,.53,.13,.79"/>
  <path class="cls-6" d="M55.73,48.4l-1.05,.74c-.49,.48-1.22,.17-1.22,.17-1.36-.37-1.39-2.39-1.39-2.39,.33-.55,.38-1.17,.38-1.17v-3.2c0-.51,.23-.98,.65-1.24l.99-.55"/>
  <path class="cls-7" d="M52.94,44.82v.18l1.91,.39m-1.91-1.45v.18l1.91,.39m-1.91-1.41v.18l1.91,.39m-1.65-1.51v.18l1.47,.29m-2.42,4.33l2.68,.62"/>
  <path class="cls-1" d="M53.59,44.86c.17-.11,.42-.04,.54,.17,.05,.08,.07,.16,.07,.25v1.2c0,.13-.06,.24-.16,.31"/>
  <path class="cls-7" d="M53.59,44.86c.17-.11,.42-.04,.54,.17,.05,.08,.07,.16,.07,.25v1.2c0,.13-.06,.24-.16,.31"/>
  <path class="cls-1" d="M54.04,46.78l-.33,.18c-.17,.11-.42,.04-.54-.17-.05-.08-.07-.17-.07-.25v-1.2c0-.13,.06-.24,.16-.31l.33-.18"/>
  <path class="cls-6" d="M54.04,46.78l-.33,.18c-.17,.11-.42,.04-.54-.17-.05-.08-.07-.17-.07-.25v-1.2c0-.13,.06-.24,.16-.31l.33-.18"/>
  <path class="cls-7" d="M51.69,52.33c-.74,2.5-3.45,1.62-3.45,1.62l-27.31-6.83c-1.5-.4-2.21-1.2-2.54-1.78m36.29,3.8c.25-.25,.44-.7,.43-1.51,0,0,.47-.59,.46-1.32v-3.34c0-.33-.1-.68-.29-.99-.5-.8-1.48-1.1-2.18-.66m.49,7.51l-.66-1.2,1.27,.32-.61,.88Zm-.32-3.78c.17-.11,.42-.04,.54,.17,.05,.08,.07,.16,.07,.25v1.2c0,.13-.06,.24-.16,.31"/>
  <path class="cls-6" d="M18.39,45.34c-.22-.38-.27-.66-.27-.66-.1-.26-.17-.57-.19-.94l-1.32-27.53s.07-.51,.59-.95l3.52-2.5"/>
  <path class="cls-7" d="M42.53,62.67c.37,.27,.82,.33,1.18,.13m-1.32-2.25c-.35,.21-.52,.63-.46,1.08m-.76-3.17c-1.45,.85-1.79,2.98-.75,4.76,1.04,1.77,3.07,2.52,4.52,1.66,1.45-.85,1.79-2.99,.74-4.76-1.04-1.77-3.06-2.52-4.52-1.66"/>
  <path class="cls-6" d="M41.32,57.34c-1.8,1.06-2.21,3.69-.92,5.88,1.29,2.19,3.79,3.11,5.59,2.05,1.8-1.06,2.21-3.69,.92-5.88-1.29-2.19-3.79-3.11-5.59-2.06m2.38,5.45c.51-.3,.62-1.04,.26-1.67-.36-.62-1.07-.88-1.58-.58"/>
  <path class="cls-7" d="M40.86,56.55c-2.16,1.27-2.65,4.43-1.1,7.06,1.55,2.63,4.55,3.73,6.7,2.47,2.16-1.27,2.65-4.43,1.1-7.06-1.55-2.63-4.55-3.73-6.7-2.47"/>
  <path class="cls-6" d="M41.29,55.49c-2.43,1.43-3.28,5.16-1.54,8.11,1.74,2.96,5.41,4.02,7.83,2.6"/>
  <path class="cls-7" d="M48.26,65.71c1.84-1.64,2.13-4.78,.57-7.44-1.58-2.68-4.5-3.95-6.84-3.1"/>
  <path class="cls-6" d="M35.79,10.31c-2.54-2.57-5.97-3.73-9.17-2.76"/>
  <path class="cls-7" d="M22.83,61.41c.52,.48,1.21,.64,1.72,.34m-1.87-3.22c-.5,.29-.7,.94-.57,1.61M40.45,10.97c-2.75-4.14-7.31-6.3-11.52-5.02l-1.87,.57c-1.24,.38-2.34,1.02-3.27,1.86m14.12,2.23c-2.78-3.53-6.97-5.28-10.85-4.1m9.38,3.85c-2.68-2.96-6.45-4.36-9.96-3.3m0,0c-.91,.28-1.74,.7-2.49,1.25"/>
  <path class="cls-6" d="M24.56,61.75c.68-.4,.81-1.44,.29-2.33-.52-.89-1.49-1.29-2.16-.89"/>
  <path class="cls-7" d="M24.39,61.42c.54-.32,.65-1.15,.23-1.86-.41-.71-1.19-1.03-1.73-.71"/>
  <path class="cls-6" d="M24.61,61.28c.54-.32,.65-1.15,.23-1.86-.41-.71-1.19-1.03-1.73-.71l-.23,.13c-.54,.32-.65,1.15-.23,1.86,.41,.71,1.19,1.03,1.73,.71l.23-.13Z"/>
  <path class="cls-7" d="M22.8,54.2c.53,.51,1.23,.68,1.76,.37m-1.87-3.22c-.51,.29-.71,.95-.56,1.63"/>
  <path class="cls-6" d="M24.56,54.57c.68-.4,.81-1.44,.29-2.33-.52-.89-1.49-1.29-2.16-.89"/>
  <path class="cls-7" d="M28.07,55.54c.23,.22,.48,.38,.75,.46l6.76,1.66c.35,.11,.72,.1,1.02-.08m-8.63-4.88c-.51,.3-.71,.95-.56,1.64"/>
  <path class="cls-1" d="M51.62,58.51c-.26,.15-.31,.55-.11,.88,.11,.19,.27,.32,.43,.37l1.75,.42c.14,.04,.27,.04,.39-.03"/>
  <path class="cls-7" d="M51.62,58.51c-.26,.15-.31,.55-.11,.88,.11,.19,.27,.32,.43,.37l1.75,.42c.14,.04,.27,.04,.39-.03"/>
  <path class="cls-1" d="M51.62,58.51c.11-.06,.23-.07,.36-.04l1.75,.43c.18,.05,.35,.18,.46,.38,.2,.34,.15,.73-.11,.88"/>
  <path class="cls-7" d="M51.62,58.51c.11-.06,.23-.07,.36-.04l1.75,.43c.18,.05,.35,.18,.46,.38,.2,.34,.15,.73-.11,.88"/>
  <path class="cls-7" d="M28.35,53.02c.21-.12,.46-.14,.71-.08m5.06,1.25c.35,.09,.69,.36,.92,.75,.39,.67,.29,1.45-.22,1.74m-6.45-3.75c.21-.12,.46-.14,.71-.08l6.48,1.61c.35,.09,.69,.36,.92,.75,.39,.67,.29,1.45-.22,1.74m-1.51-.13l.75,.19c.26,.09,.54,.07,.77-.06m-7.88-4.02c-.1,.06-.18,.14-.25,.23"/>
  <path class="cls-1" d="M28.35,53.02c-.51,.3-.61,1.08-.22,1.74,.21,.37,.53,.62,.86,.73l.17,.04,.98,.31s.42,.15,.51,.37l1.35,.34s.3-.14,.68-.1l.98,.18,.39,.1c.27,.09,.54,.07,.77-.06l.7-.44c.48-.28,.59-.98,.28-1.62"/>
  <path class="cls-6" d="M28.35,53.02c-.51,.3-.61,1.08-.22,1.74,.21,.37,.53,.62,.86,.73l.17,.04,.98,.31s.42,.15,.51,.37l1.35,.34s.3-.14,.68-.1l.98,.18,.39,.1c.27,.09,.54,.07,.77-.06l.7-.44c.48-.28,.59-.98,.28-1.62"/>
  <path class="cls-7" d="M24.39,54.24c.54-.32,.65-1.15,.23-1.86-.41-.71-1.19-1.03-1.73-.71"/>
  <path class="cls-6" d="M24.61,54.11c.54-.32,.65-1.15,.23-1.86-.41-.71-1.19-1.03-1.73-.71l-.23,.13c-.54,.32-.65,1.15-.23,1.86,.41,.71,1.19,1.03,1.73,.71l.23-.13Z"/>
  <path class="cls-7" d="M28.2,62.7c.53,.53,1.25,.72,1.79,.4m-1.87-3.22c-.51,.3-.71,.96-.56,1.64M14.77,25.46c-.13,.07-.21,.3-.12,.46s.34,.21,.47,.13m-2.1-.93c-.13,.07-.21,.3-.12,.46,.1,.17,.34,.21,.47,.13m-2.1-.92c-.13,.07-.21,.3-.12,.46,.1,.17,.34,.21,.47,.13m-2.1-.92c-.13,.07-.21,.3-.12,.46,.1,.17,.34,.21,.47,.14m13.37,27.16c-.3,.17-.35,.63-.13,1.02,.23,.39,.65,.57,.95,.39m0,0c.3-.17,.35-.63,.13-1.02-.23-.39-.65-.57-.95-.39"/>
  <path class="cls-6" d="M29.99,63.1c.68-.4,.81-1.44,.29-2.32-.52-.89-1.49-1.29-2.16-.89"/>
  <path class="cls-7" d="M29.82,62.77c.54-.32,.65-1.15,.23-1.86-.41-.71-1.19-1.03-1.73-.72"/>
  <path class="cls-6" d="M30.05,62.64c.54-.32,.65-1.15,.23-1.86-.41-.71-1.19-1.03-1.73-.71l-.23,.13c-.54,.32-.65,1.15-.23,1.86,.41,.71,1.19,1.03,1.73,.71l.23-.13Z"/>
  <path class="cls-7" d="M34.69,64.33c.52,.48,1.21,.64,1.72,.34m-1.87-3.22c-.57,.33-.75,1.12-.49,1.89"/>
  <path class="cls-6" d="M36.41,64.67c.68-.39,.81-1.44,.29-2.32-.52-.89-1.49-1.29-2.16-.89"/>
  <path class="cls-7" d="M36.24,64.34c.54-.32,.65-1.15,.23-1.86s-1.19-1.03-1.73-.71"/>
  <path class="cls-6" d="M36.47,64.21c.54-.32,.65-1.15,.23-1.86s-1.19-1.03-1.73-.71l-.23,.13c-.54,.32-.64,1.15-.23,1.86,.41,.71,1.19,1.03,1.73,.71l.23-.13Z"/>
  <path class="cls-7" d="M10.11,44.04c.15,.14,.32,.23,.49,.29l5.57,1.38c.25,.08,.51,.07,.72-.06m-6.9-3.67c-.36,.21-.5,.68-.4,1.17m-.21-18.2c.1,.17,.34,.21,.47,.14m19.43,28.48s-.1,.05-.1,.12v1.36l.15,.05m4.4-.4s-.1,.05-.1,.12v1.37l.18,.04m-.8-1.63s-.1,.05-.1,.12v1.36l.2,.04m-3.25-2.36s-.1,.05-.1,.12v1.36l.16,.05m1.19-1l.37,.1v1.74m.66-1.88s.39-.29,.71-.24l1.27,.2m-5.06-1.25l1.08,.36s.47,.15,.51,.66v2.25m10.64,4.63v.88l-1.01-.73,1.01-.15Zm3.54,1.7v-.88l1.01,.73-1.01,.15Zm-1.4,1.07l-.83-.2,.46,1.17,.38-.97Zm-.8-3.92l.83,.2-.46-1.17-.38,.97Z"/>
  <path class="cls-6" d="M9.99,41.99c.2-.12,.44-.14,.67-.07l5.57,1.38c.33,.09,.65,.34,.87,.71,.37,.63,.27,1.37-.21,1.65"/>
  <path class="cls-7" d="M13.41,42.91l2.74,.7c.25,.07,.49,.25,.65,.53,.28,.48,.21,1.03-.15,1.24m-6.47-3.11c.15-.09,.33-.1,.5-.05l2.39,.61"/>
  <path class="cls-6" d="M10.59,42l-.41,.26c-.36,.21-.43,.77-.15,1.24,.15,.26,.38,.44,.61,.52l5.47,1.39c.19,.06,.38,.05,.55-.04l.66-.39"/>
  <line class="cls-7" x1="13.41" y1="42.91" x2="13.41" y2="44.67"/>
  <polyline points="12.07 43.63 12.07 43.51 11.36 43.33 11.36 43.45 12.07 43.63"/>
  <polyline points="15.39 44.47 15.39 44.35 14.8 44.21 14.8 44.33 15.39 44.47"/>
  <polyline points="11.77 43.85 11.77 43.11 11.66 43.08 11.66 43.82 11.77 43.85"/>
  <line class="cls-7" x1="47.43" y1="70.68" x2="49.82" y2="71.38"/>
  <path class="cls-6" d="M73.06,77.46v.78s0,.34-.25,.64"/>
  <path class="cls-7" d="M61.24,75.28l5.94,1.69M8.45,30.28s-.1,14.78,1.27,26.23c0,0-.1,2.45,2.64,5.09l2.55,2.55,53.88,15.93s1.76,.59,3.23-.59l4.45-3.63s1.86-1.42,1.91-3.08v-.84m-5.29,5.87l3.38-2.79s1.86-1.42,1.91-3.08"/>
  <path class="cls-6" d="M50.25,69.48l-3.04-.86c-.21-.06-.35-.04-.45,.02"/>
  <path class="cls-7" d="M46.76,68.65c-.3,.19-.19,.79-.19,.79l.38,1.76,.99,1.65s.3,.56,.99,.75l2.02,.61"/>
  <path class="cls-1" d="M50.85,70.13l-.26,.55s-.18,.4-.15,.73l.37,2.2,.88,1.65s.04,.22,.48,.4l1.61,.44s.48,.15,.7-.11l.62-.51,5.69,1.72c.24,.07,.38,.08,.45,.04l.43-.4c.23-.11-.12-.59-.12-.59l-.61-1.1-.18-1.98c-.18-.99-.96-1.13-.96-1.13l-8.62-2.47c-.42-.14-.66-.12-.8-.02l-.44,.54c-.29,.2-.13,.71-.13,.71l.24,1.37s.1,.39,.59,.93"/>
  <path class="cls-6" d="M50.85,70.13l-.26,.55s-.18,.4-.15,.73l.37,2.2,.88,1.65s.04,.22,.48,.4l1.61,.44s.48,.15,.7-.11l.62-.51,5.69,1.72c.24,.07,.38,.08,.45,.04l.43-.4c.23-.11-.12-.59-.12-.59l-.61-1.1-.18-1.98c-.18-.99-.96-1.13-.96-1.13l-8.62-2.47c-.42-.14-.66-.12-.8-.02l-.44,.54c-.29,.2-.13,.71-.13,.71l.24,1.37s.1,.39,.59,.93"/>
  <path class="cls-7" d="M50.77,71.12l1.62,.48m.95-.6l-.51,.6m6.12,1.63l.29,1.87,.77,1.29s.15,.15,.33,.15m-2.5-3.62l.3,1.87,.77,1.29s.15,.15,.33,.15m-2.5-3.62l.29,1.87,.77,1.29s.15,.15,.33,.15m-2.49-3.62l.29,1.87,.77,1.29s.15,.15,.33,.15m-2.49-3.62l.29,1.87,.77,1.29s.15,.15,.33,.15m-2.39-4l.35,2.26,1.05,1.71m-2.28-3.34l.37,2.35,.92,1.8m7.28,1.21c.23-.11-.12-.59-.12-.59l-.7-1.14m-6.89-4.6l5.67,1.63s.85,.26,.88,1.14l.22,1.51m-10.38-5.1c.14-.1,.38-.12,.8,.02m-3.63-1.35s-.07,.37-.04,.66l.26,1.21,1.21,1.87s.22,.26,.7,.4l1.4,.44"/>
  <path class="cls-1" d="M63.71,23.99c.61,.12,.64,.71,.64,.71v4.4c0,.49-.49,.59-.49,.59l-.88,.2c-.29,.07-.47-.1-.47-.1l-.54-.42c-1.22-.64-3.5-.71-3.5-.71l-1.05,.15c-.76,.02-.78-.81-.78-.81v-4.23c0-.34,.15-.51,.15-.51l.34-.27s.24-.15,.61-.12"/>
  <path class="cls-6" d="M63.71,23.99c.61,.12,.64,.71,.64,.71v4.4c0,.49-.49,.59-.49,.59l-.88,.2c-.29,.07-.47-.1-.47-.1l-.54-.42c-1.22-.64-3.5-.71-3.5-.71l-1.05,.15c-.76,.02-.78-.81-.78-.81v-4.23c0-.34,.15-.51,.15-.51l.34-.27s.24-.15,.61-.12"/>
  <path class="cls-7" d="M63.18,24.5l.66-.22m-1.86,.02v4.78m.89,.64v-4.89c-.03-.51-.92-.94-.92-.94-1.25-.49-3.45-.54-3.45-.54l-1.35,.1s-.23,.03-.35,.22m1.65,4.73v-4.58"/>
  <path class="cls-6" d="M54.77,22.83c.21-.22,.58-.37,1.18-.27l8.29,1.51s1.71,.39,1.71,2.06v2.35s.04,.65-.36,1.08"/>
  <line class="cls-7" x1="68.41" y1="23.83" x2="68.21" y2="29.94"/>
  <polyline class="cls-6" points="45.89 23.79 45.89 22.84 44.06 22.53"/>
  <path class="cls-7" d="M44.06,23.46l.73-.66m-.73-.26v.92"/>
  <polyline class="cls-6" points="23.5 19.93 23.5 18.97 21.67 18.67"/>
  <path class="cls-7" d="M21.67,19.58l.73-.66m-.73-.24v.9"/>
  <polyline class="cls-6" points="34.27 45.55 34.27 44.62 32.43 44.18"/>
  <path class="cls-7" d="M51.14,73.75l1.61,.48m-.81-2l.18,1.18-.88-.66,.7-.51Zm-19.52-27.11l.73-.66m-.73-.26v.92"/>
  <line class="cls-1" x1="70.34" y1="22.39" x2="71.06" y2="22.53"/>
  <line class="cls-7" x1="70.34" y1="22.39" x2="71.06" y2="22.53"/>
  <path class="cls-1" d="M71.06,22.53v-.45c-.02-.46,.32-.68,.32-.68l4.05-2.42s.12-.06,.22-.03l.4,.09c.08,.02,.14,.09,.14,.27v.43s.02,.29-.23,.46l-.4,.2c-.08,.04-.2,.06-.36,.06l-.27-.02h0s-2.51,1.58-2.51,1.58c-.13,.09-.22,.38-.22,.38,0,0-.09,.15-.18,.2l-.65,.34c-.08,.04-.26,.12-.5,.06l-.18-.04"/>
  <path class="cls-6" d="M71.06,22.53v-.45c-.02-.46,.32-.68,.32-.68l4.05-2.42s.12-.06,.22-.03l.4,.09c.08,.02,.14,.09,.14,.27v.43s.02,.29-.23,.46l-.4,.2c-.08,.04-.2,.06-.36,.06l-.27-.02h0s-2.51,1.58-2.51,1.58c-.13,.09-.22,.38-.22,.38,0,0-.09,.15-.18,.2l-.65,.34c-.08,.04-.26,.12-.5,.06l-.18-.04"/>
  <path class="cls-7" d="M76.05,19.04c-.1-.03-.22,.03-.22,.03l-3.93,2.36s-.34,.22-.32,.68v.45s.03,.24-.21,.35"/>
  <path class="cls-6" d="M75.63,20.08s-.1-.01-.1-.01l-.6,.34"/>
  <path class="cls-7" d="M72.02,22.58c.09-.04,.18-.2,.18-.2,0,0,.09-.29,.22-.38l2.51-1.59h0s.27,.03,.27,.03c.16,0,.27-.02,.36-.06l.4-.2"/>
  <path class="cls-6" d="M70.69,22.94c-.06-.39-.55-.55-.55-.55,0,0,.52-.09,.91-.39"/>
  <path class="cls-1" d="M87.09,36.85l-.02-1.4,.37-.21-.03-1.79h0l-.29-.06c-.26-.09-.59-.32-.6-.7l.12-5.58c0-.46,2.07-1.94,2.07-1.94,0,0,3.28-.71,3.64-.63l42.94,8.24c.98,.23,1.66,1.16,1.68,2.36l.84,48.01c0,.51-.08,.9-.28,1.16l-1.94,1.11c-.24,.32-.64,.42-1.19,.25l-45.27-12.92c-1.23-.4-1.85-1.57-1.85-1.57-.26-.42-.11-1.86-.12-2.2l-.02-1.3,.38-.08v.32c0-.22-.03-.43,.15-.57,.18-.14,.31-.3,.3-.48l-.88-30.02Z"/>
  <path class="cls-9" d="M87.09,36.85l-.02-1.4,.37-.21-.03-1.79h0l-.29-.06c-.26-.09-.59-.32-.6-.7l.12-5.58c0-.46,2.07-1.94,2.07-1.94,0,0,3.28-.71,3.64-.63l42.94,8.24c.98,.23,1.66,1.16,1.68,2.36l.84,48.01c0,.51-.08,.9-.28,1.16l-1.94,1.11c-.24,.32-.64,.42-1.19,.25l-45.27-12.92c-1.23-.4-1.85-1.57-1.85-1.57-.26-.42-.11-1.86-.12-2.2l-.02-1.3,.38-.08v.32c0-.22-.03-.43,.15-.57,.18-.14,.31-.3,.3-.48l-.88-30.02Z"/>
  <path class="cls-4" d="M135.83,81.57l.05,2.69c0,.51-.08,.9-.28,1.16m-.5-45.49l.7,40.34M87.33,26.37l4.2-.67,41.82,8.19c.98,.23,1.66,1.16,1.68,2.36l.05,2.69"/>
  <path class="cls-9" d="M87.55,67.63l14.8,3.78c.88,.26,1.43-.08,1.41-1.01l-.57-32.13c-.02-.86-.65-1.57-1.29-1.66l-14.49-3.17"/>
  <path class="cls-4" d="M129.46,34.45l.05,2.57,2.46,.54m5.11,1.01l-1.41,.6c-.36,.16-.79,.22-1.42,.04l-26.77-4.95c-.51-.11-1.26-.12-1.24,.99l.64,35.98c.02,1.36,.85,2.05,1.78,2.39l26.21,7.11c.71,.23,1.31,.12,1.73-.08l1.15-.54"/>
  <path class="cls-9" d="M130.78,34.74l.03,1.84,1.17,.26m-.01,.73l-.05-2.57-2.47-.54"/>
  <polyline class="cls-4" points="130.27 80.67 130.31 83.24 132.78 83.95"/>
  <path class="cls-9" d="M131.59,81.12l.03,1.71,1.17,.39m0,.72l-.05-2.57-2.47-.71"/>
  <polygon class="cls-4" points="91.7 71.27 91.71 72.01 89.77 70.43 91.67 69.65 91.68 70.37 93.55 70.81 93.57 71.71 91.7 71.27"/>
  <path class="cls-1" d="M102.18,62.26c.88,.26,1.43-.08,1.41-1.01l-.41-22.97c-.02-.86-.65-1.57-1.29-1.66l-14.86-3.25c-.22-.06-.5,.08-.49,.49l.43,23.88c0,.43,.17,.61,.44,.67l14.78,3.85Z"/>
  <path class="cls-9" d="M102.18,62.26c.88,.26,1.43-.08,1.41-1.01l-.41-22.97c-.02-.86-.65-1.57-1.29-1.66l-14.86-3.25c-.22-.06-.5,.08-.49,.49l.43,23.88c0,.43,.17,.61,.44,.67l14.78,3.85Z"/>
  <path class="cls-4" d="M87.97,66.77l14.8,3.78c.37,.11,.69,.11,.92,0m-14.6-26.69l12.07,3-.11-6.27-12.07-2.76,.11,6.03Z"/>
  <path class="cls-2" d="M135.29,32.78l-42.94-8.24c-.36-.07-3.64,.63-3.64,.63,0,0-2.08,1.47-2.07,1.94l-.12,5.57c0,.39,.33,.62,.6,.7l.29,.06h0s-.38-.08-.38-.08c-.22-.06-.5,.08-.49,.49l.43,23.88c0,.43,.17,.61,.44,.67l.32,.08,.25,8.38c0,.18-.12,.35-.3,.48-.13,.1-.15,.24-.15,.39v-.14s-.38,.08-.38,.08l.02,1.3c0,.34-.14,1.78,.12,2.2,0,0,.63,1.17,1.85,1.57l45.27,12.92c.55,.16,.95,.06,1.19-.25l1.94-1.11c.19-.25,.29-.64,.28-1.16l-.84-48.01c-.02-1.21-.7-2.14-1.68-2.36Z"/>
  <polyline class="cls-1" points="81.97 52.68 93.61 55.18 93.5 49.25 81.97 46.86"/>
  <polyline class="cls-3" points="81.97 52.68 93.61 55.18 93.5 49.25 81.97 46.86"/>
  <polygon class="cls-1" points="83.61 44.36 83.81 55.79 76.08 48.39 83.61 44.36"/>
  <polygon class="cls-3" points="83.61 44.36 83.81 55.79 76.08 48.39 83.61 44.36"/>
  <polyline class="cls-4" points="81.97 52.68 93.61 55.18 93.5 49.25 81.97 46.86"/>
  <polygon class="cls-4" points="83.61 44.36 83.81 55.79 76.08 48.39 83.61 44.36"/>
  <path class="cls-6" d="M27.97,52.71c.28-.17,.61-.19,.94-.1l6.75,1.66c.46,.12,.92,.48,1.22,1,.52,.89,.39,1.93-.29,2.32"/>
  <path class="cls-1" d="M46.92,71.72l.77-.51-.38-.59-.29-1.51-.37,.18-6.01-1.64c-.16,.07-.21,.08-.25,.1l-.26,.14s-.06,.11-.03,.19l.36,1.45c.04,.17,.21,.34,.38,.39l6.09,1.79"/>
  <line class="cls-8" x1="40.49" y1="67.71" x2="40.12" y2="67.9"/>
  <path class="cls-6" d="M46.56,69.25l-6.01-1.64c-.15-.04-.25,.03-.23,.17"/>
  <path class="cls-7" d="M47.01,69.12l-.43,.24c-.14,.08-.39,.11-.55,.07l-5.72-1.56c-.08-.02-.15-.01-.19,.03"/>
  <path class="cls-6" d="M47.68,71.22l-.51,.34c-.14,.09-.38,.13-.54,.08l-5.8-1.71c-.17-.05-.33-.23-.38-.39l-.36-1.45c-.02-.09,0-.15,.03-.19m6.44,1.35l.46-.28"/>
  <path class="cls-7" d="M45.46,69.76l.31,1.26m-.56-1.5s-.17,.09-.15,.16l.36,1.42h.28m1.39-2.36s-.07,.37-.04,.66l.26,1.22,1.22,1.88s.22,.26,.7,.41l1.4,.44m-4.28-3.73l.52,1.85"/>
  <path class="cls-6" d="M51.62,58.51c.11-.06,.23-.07,.36-.04l1.75,.43c.18,.05,.35,.18,.46,.38,.2,.34,.15,.73-.11,.88m-2.46-1.65c-.26,.15-.31,.55-.11,.88,.11,.19,.27,.32,.43,.37l1.75,.42c.14,.04,.27,.04,.39-.03"/>
  <polyline points="81.97 52.68 93.61 55.18 93.5 49.25 81.97 46.86"/>
  <polygon points="83.61 44.36 83.81 55.79 76.08 48.39 83.61 44.36"/>
</svg>