<?xml version="1.0" encoding="UTF-8"?>
<svg id="Layer_1" data-name="Layer 1" xmlns="http://www.w3.org/2000/svg" viewBox="0 0 131 124.34">
  <defs>
    <style>
      .cls-1 {
        fill: #fff;
      }

      .cls-2 {
        stroke-width: .9px;
      }

      .cls-2, .cls-3, .cls-4 {
        fill: none;
        stroke: #000;
      }

      .cls-3 {
        stroke-width: .6px;
      }

      .cls-4 {
        stroke-width: .3px;
      }
    </style>
  </defs>
  <path class="cls-1" d="M26.16,7.35v-1.07c0-.28-.07-.47-.19-.54l-.83-.18c-.28,.01-.51,.04-.51,.04l-5.46,1.76s-.53,.22-.5,.95v.86"/>
  <path class="cls-3" d="M26.16,7.35v-1.07c0-.28-.07-.47-.19-.54l-.83-.18c-.28,.01-.51,.04-.51,.04l-5.46,1.76s-.53,.22-.5,.95v.86"/>
  <path class="cls-4" d="M25.94,5.81c-.16-.09-.35-.04-.35-.04l-5.63,1.85s-.53,.22-.49,.95v.45"/>
  <path class="cls-1" d="M25.73,6.93l79.06,12.16c8,1.18,11.74,5.03,11.74,5.03,11.89,10.83,5.95,28.67,5.95,28.67-1.68,4.88-1.53,9.3-1.53,9.3l-1.52,36.6c-.15,7.62-4.73,9.76-4.73,9.76l-11.13,7.93c-3.96,2.9-8.54,1.07-8.54,1.07l-49.1-13.72c-1.83-.61-4.57-.15-4.57-.15l-7.01,1.07c-2.13,.3-4.57-.15-4.57-.15l-15.1-5.03c-3.97-1.22-4.73-5.49-4.73-5.49C5.38,56.9,6.9,21.91,6.9,21.91c.15-4.35,1.91-5.95,1.91-5.95,1.91-1.68,3.2-3.43,3.2-3.43,.91-1.6,2.1-2.1,2.1-2.1l9.64-3.32s.84-.31,1.98-.19"/>
  <path class="cls-1" d="M73.33,65.37l-14.18-3.2c-6.97-1.54-11.85-7.1-11.85-7.1,0,0,2.59,3.2,7.93,4.27l14.18,3.2"/>
  <path class="cls-1" d="M43.3,100.66c-.83-30.3-1.06-49.17-1.06-49.17l-.88-2.21c-3.2-3.35-7.17-4.12-7.17-4.12l-4.19-.99-.92,2.29s.34,22.07,1.72,53.4l.46,4.8c.88,.08,2.02,.11,3.09-.04l7.01-1.07s.46-.08,1.13-.13l.8-2.77"/>
  <path class="cls-1" d="M37.29,39.32c-3.98-.78-4.34-5.09-4.34-5.09,.07-1.72,.55-2.82,1.16-3.51l-.7,.3c-.9,.6-1.92,1.66-1.8,4.08,0,0,.51,4.33,4.33,5.09"/>
  <path class="cls-1" d="M74.98,62.39c-1.95-1.79-3.63-4.04-4.88-6.67-4.2-8.86-1.93-18.84,4.99-23.1l-.37,.09c-7.92,3.76-10.74,14.42-6.29,23.81,1.25,2.63,2.93,4.88,4.88,6.67"/>
  <path class="cls-1" d="M95.32,44.27c-.06-.14-.12-.28-.19-.42-3.24-6.85-10.56-10.18-16.34-7.44-5.78,2.74-7.83,10.51-4.58,17.36,.98,2.07,2.33,3.82,3.91,5.18l2.4-3.4,2.2-.81c-1.08-.99-2.01-2.24-2.7-3.69-2.24-4.73-1.15-10.04,2.38-12.52l.58-.2c3.89-.84,8.25,1.44,10.5,5.67l1.85,.27"/>
  <path class="cls-1" d="M111.9,22.37c-1.56,.55-12.92,5.04-15.12,5.96-1.97,.88-1.19,2.67-1.19,2.67,0,0,5.6,5.34,7.39,9.13,5.08,10.71,1.86,22.88-7.18,27.16l-3.06,1.45c-.39,.19-.78,.35-1.18,.5l.52-.03c2.19,.18,4.13,.1,5.83-.15l.11,1.75v35.57c-.11,10.06-8.35,8.58-8.35,8.58l-1.97,.44,7.31,2.04s4.57,1.83,8.54-1.07l11.13-7.93s4.57-2.13,4.73-9.76l1.52-36.6s-.15-4.42,1.53-9.3c0,0,5.95-17.84-5.95-28.67,0,0-.37-.38-1.12-.93,0,0-2.09-1.32-3.51-.81"/>
  <path class="cls-1" d="M95.66,31.05c2.97,2.23,5.54,5.32,7.33,9.08,5.08,10.71,1.86,22.88-7.18,27.16l-3.06,1.45c-9.04,4.29-20.49-.92-25.57-11.64h0c4.83,10.2,15.73,15.16,24.34,11.08,8.61-4.08,11.66-15.66,6.83-25.85-1.78-3.76-4.39-6.82-7.41-8.96l4.71-2.31"/>
  <path class="cls-4" d="M75.09,32.62c-6.92,4.26-9.18,14.24-4.99,23.1,4.16,8.77,13.18,13.33,20.81,10.84m-16.2-33.85c-7.92,3.76-10.74,14.42-6.29,23.81,4.45,9.39,14.48,13.96,22.41,10.2m.69,1.46c8.61-4.08,11.66-15.66,6.83-25.85s-15.73-15.16-24.34-11.08"/>
  <path class="cls-3" d="M90.84,66.71c7.92-3.76,10.74-14.41,6.29-23.8-4.45-9.39-14.48-13.96-22.41-10.2"/>
  <path class="cls-4" d="M81.34,38.88c-4.38,2.08-5.94,7.97-3.48,13.17,2.46,5.19,8.01,7.72,12.39,5.64m-9.29-19.17c-4.59,2.18-6.22,8.35-3.64,13.79,2.58,5.44,8.39,8.08,12.98,5.91,4.59-2.18,6.22-8.35,3.64-13.79-2.58-5.44-8.39-8.08-12.98-5.91m-.4-.38c-4.81,2.28-6.51,8.74-3.81,14.44,2.7,5.7,8.78,8.46,13.59,6.19,4.81-2.28,6.51-8.74,3.81-14.44-2.7-5.7-8.78-8.46-13.59-6.19m-.41-.4c-5.03,2.39-6.82,9.15-3.99,15.12,2.83,5.96,9.2,8.86,14.23,6.48,5.03-2.38,6.82-9.15,3.99-15.12-2.83-5.96-9.2-8.86-14.23-6.48m-.43-.42c-5.27,2.5-7.14,9.59-4.18,15.83,2.96,6.24,9.63,9.28,14.9,6.78,5.27-2.5,7.14-9.58,4.18-15.83-2.96-6.24-9.63-9.28-14.9-6.78m-.45-.44c-5.52,2.62-7.48,10.04-4.38,16.57,3.1,6.54,10.08,9.72,15.6,7.1,5.52-2.62,7.48-10.04,4.38-16.57-3.1-6.54-10.08-9.72-15.6-7.1m-.48-.46c-5.78,2.74-7.83,10.51-4.58,17.36,3.25,6.85,10.56,10.18,16.34,7.44,5.78-2.74,7.83-10.51,4.58-17.36-3.24-6.85-10.56-10.18-16.34-7.44"/>
  <path class="cls-3" d="M90.26,57.69c4.38-2.08,5.94-7.97,3.48-13.17-2.46-5.19-8.01-7.72-12.39-5.64m1.05-.36c-3.53,2.48-4.62,7.79-2.38,12.52,2.25,4.75,7.09,7.27,11.25,6.07"/>
  <path class="cls-4" d="M92.22,68.99c9.04-4.29,12.25-16.45,7.18-27.16-5.08-10.71-16.53-15.93-25.57-11.64"/>
  <path class="cls-3" d="M95.82,67.29c9.04-4.29,12.25-16.45,7.18-27.16-5.08-10.71-16.53-15.93-25.57-11.64l-3.06,1.45c-9.04,4.29-12.26,16.45-7.18,27.16s16.53,15.93,25.57,11.64l3.06-1.45Z"/>
  <path class="cls-4" d="M14.37,20.11c.94,.62,2.61,.62,4.25-.1,1.6-.7,2.72-1.89,2.94-2.98M89.7,114.96s8.23,1.49,8.35-8.58v-35.57m12.12-9.26s-1.14,2.97-1.26,5.03l-1.6,40.71s-.08,6.21-3.74,9.07M74.81,30.87l-.78,.37c-8.61,4.08-11.67,15.66-6.83,25.85s15.73,15.16,24.34,11.08l.78-.37m-.22,1.41c10.86,.91,15.67-4.8,15.67-4.8,4.46-4.69,5.42-19.27,1.6-27.33-3.42-7.22-9.74-11.94-16.26-12.94L16.51,12.03s-2.52-.23-2.29-1.26"/>
  <path class="cls-3" d="M13.74,19.39c-.56-1.28,.71-3.08,2.85-4.01,2.13-.94,4.32-.66,4.88,.62l.18,.41c.56,1.28-.71,3.08-2.85,4.01-2.14,.94-4.32,.66-4.88-.62l-.18-.41Z"/>
  <path class="cls-4" d="M7.93,20.15s.57,1.14,4.69,1.72l57.64,9.49M16.46,14.01l7.6,1.23m-12.53,5.31l7.6,1.23m4.93-6.54c.95,.15,1.69,.6,2,1.3m-14.53,4c-.96-.15-1.71-.59-2.02-1.31-.65-1.48,.83-3.56,3.3-4.65,1.3-.57,2.6-.75,3.65-.58m9.6,2.53c.65,1.48-.83,3.56-3.3,4.65-1.28,.56-2.59,.75-3.63,.58"/>
  <path class="cls-3" d="M48.53,56.29l-7.17-7.01M115.24,27.04c9.74,10.89,4.35,27.05,4.35,27.05-1.68,4.88-1.52,9.3-1.52,9.3l-1.69,37.27c-.12,6.13-3.1,8.71-4.27,9.49M21.35,7.99l82.3,12.72c4.12,.75,6.85,2.26,8.41,3.37,0,0,1.96,1.41,3.18,2.96"/>
  <path class="cls-4" d="M41.36,49.28c-3.2-3.35-7.17-4.12-7.17-4.12l-4.19-.99"/>
  <path class="cls-3" d="M30,44.17l-9.99-2.36c-3.81-.76-3.35,2.74-3.35,2.74,0,0,.42,25.12,3.39,51.31,0,0,.46,2.86,2.86,3.66l6.17,2.06s1.49,.46,3.32,.23l4.92-.8s1.37-.23,1.37-1.83l-1.72-49.86s-.11-1.49-1.94-2.52l-5.03-2.63"/>
  <path class="cls-4" d="M59.97,44.09v-9.07c0-1.6-1.63-1.88-1.63-1.88l-14.79-2.44c-1.37-.23-1.35,1.11-1.35,1.11v9.15s-.02,1.27,1.4,1.55l14.97,2.9s1.4,.28,1.4-1.32Zm-22.77,3.96l4.16,1.22m-7.85,3.35c0-.71-.62-1.29-1.38-1.29s-1.38,.58-1.38,1.29m1.5,45.06c0,.71,.61,1.28,1.36,1.28s1.36-.57,1.36-1.28m-1.47-45.06c.19,8.41,.6,24.66,1.47,45.06m-4.22-45.06c.19,8.41,.62,24.66,1.5,45.06m9.98-46.2s.23,18.87,1.06,49.17m-14.21-54.21s.34,22.07,1.72,53.4m16.51-44.79s4.88,5.57,11.85,7.1l14.18,3.2m-26.03-10.3s2.59,3.2,7.93,4.27l14.18,3.2"/>
  <path class="cls-3" d="M58.74,43.26v-7.8c0-1.2-1.22-1.41-1.22-1.41l-13.21-2.17c-1.03-.17-1.01,.83-1.01,.83v7.86s-.02,.95,1.05,1.16l13.35,2.52s1.05,.21,1.05-.99Z"/>
  <path class="cls-4" d="M33.41,31.02c-.9,.6-1.92,1.66-1.8,4.08,0,0,.51,4.33,4.33,5.09l3.08,.58s.44,.09,.74-.18m-3.87,.53l3.98,.77s1.35,.27,1.35-1.27v-8.76c0-1.55-1.58-1.81-1.58-1.81l-3.81-.57s-5.43-.51-5.15,5.47c0,0,.17,5.05,5.2,6.17Z"/>
  <path class="cls-3" d="M39.76,40.58c.16-.14,.28-.38,.28-.77v-7.53c0-1.16-1.18-1.36-1.18-1.36l-2.83-.46s-1.39-.26-2.62,.56m.7-.3c-.61,.69-1.08,1.79-1.16,3.51,0,0,.36,4.3,4.34,5.09l2.77,.52"/>
  <path class="cls-4" d="M105.2,27.46l6.86-3.38m-4.29,6.42l7.4-3.64M10.9,90.71c.08,.15,.19,.25,.3,.24,.22-.01,.38-.39,.35-.85-.03-.46-.23-.82-.45-.8-.11,0-.2,.11-.27,.26m-.74-8.11c.08,.15,.19,.24,.3,.24,.22-.01,.37-.39,.35-.85-.03-.46-.23-.82-.45-.8-.11,0-.2,.1-.27,.26m-.62-7.76c.08,.15,.19,.25,.3,.24,.22-.01,.38-.39,.35-.85-.03-.46-.23-.82-.45-.8-.11,0-.2,.1-.27,.26m-.62-8.57c.08,.15,.19,.24,.3,.24,.22-.01,.38-.39,.35-.85-.03-.46-.23-.82-.45-.8-.11,0-.2,.1-.27,.26m-.17-8.34c.08,.15,.19,.25,.3,.24,.22-.01,.37-.39,.35-.85-.03-.46-.23-.82-.45-.8-.11,0-.2,.11-.27,.26m-.24-8.57c.08,.15,.19,.24,.3,.24,.22-.01,.38-.39,.35-.85-.03-.46-.23-.82-.45-.8-.11,0-.2,.11-.27,.26m6.56,49.78c.17,.12,.37,.17,.55,.1,.35-.12,.5-.6,.34-1.07-.16-.47-.58-.75-.93-.63-.18,.06-.3,.21-.36,.41m-.28-7.84c.17,.12,.37,.17,.55,.1,.35-.12,.51-.6,.34-1.07-.16-.47-.58-.75-.93-.63-.18,.06-.3,.21-.36,.41m-.17-8.3c.17,.12,.37,.17,.55,.1,.35-.12,.5-.6,.34-1.07-.16-.47-.58-.75-.93-.63-.18,.06-.3,.21-.36,.41m-.28-8.3c.17,.12,.37,.17,.55,.1,.35-.12,.51-.6,.34-1.07-.16-.47-.58-.75-.93-.63-.18,.06-.3,.21-.36,.41m.18-8.41c.17,.12,.37,.16,.55,.1,.35-.12,.5-.6,.34-1.07-.16-.47-.58-.75-.93-.63-.18,.06-.3,.21-.36,.41m.29-8.64c.17,.12,.37,.16,.55,.1,.35-.12,.51-.6,.34-1.07-.16-.47-.58-.75-.94-.63-.18,.06-.3,.21-.36,.41"/>
  <path class="cls-3" d="M105.24,27.47s1.38,1.32,2.52,3.03"/>
  <path class="cls-4" d="M111.88,24.19v1.85l1.6,.15v.59l1.68,.08m-7.85,2.9l6.18-2.97m-6.94,1.91l5.34-2.65m-5.85,2.03l5.79-2.89"/>
  <path class="cls-1" d="M106.71,29.07c.37,.11,.65,.01,.78-.04l1.02-.45c.14-.06,.29-.29,.29-.29,0,0,.14-.44,.35-.57l3.29-1.63v.02s.43,.07,.43,.07c.25,.03,.43,0,.55-.05l.75-.36c.38-.24,.35-.69,.35-.69v-.41c0-.28-.1-.39-.22-.44l-.8-.11c-.16-.06-.35,.02-.35,.02l-5.62,2.77s-.53,.3-.5,1.03v.45l-.89-.12,.58,.8Z"/>
  <path class="cls-3" d="M106.71,29.07c.37,.11,.65,.01,.78-.04l1.02-.45c.14-.06,.29-.29,.29-.29,0,0,.14-.44,.35-.57l3.29-1.63v.02s.43,.07,.43,.07c.25,.03,.43,0,.55-.05l.75-.36c.38-.24,.35-.69,.35-.69v-.41c0-.28-.1-.39-.22-.44l-.8-.11c-.16-.06-.35,.02-.35,.02l-5.62,2.77s-.53,.3-.5,1.03v.45l-.89-.12,.58,.8Z"/>
  <path class="cls-4" d="M113.58,25.97c.05-.18,0-.27-.08-.31m.78-1.41c-.16-.06-.35,.02-.35,.02l-5.63,2.77s-.53,.3-.49,1.03v.45s.04,.38-.32,.53"/>
  <path class="cls-3" d="M113.51,25.66c-.07-.04-.15-.03-.15-.03l-.93,.46"/>
  <path class="cls-4" d="M108.51,28.58c.14-.06,.29-.29,.29-.29,0,0,.14-.44,.35-.57l3.29-1.63v.02s.43,.07,.43,.07c.25,.03,.43,0,.55-.05l.75-.36"/>
  <path class="cls-2" d="M25.73,6.93l79.06,12.16c8,1.18,11.74,5.03,11.74,5.03,11.89,10.83,5.95,28.67,5.95,28.67-1.68,4.88-1.53,9.3-1.53,9.3l-1.52,36.6c-.15,7.62-4.73,9.76-4.73,9.76l-11.13,7.93c-3.96,2.9-8.54,1.07-8.54,1.07l-49.1-13.72c-1.83-.61-4.57-.15-4.57-.15l-7.01,1.07c-2.13,.3-4.57-.15-4.57-.15l-15.1-5.03c-3.97-1.22-4.73-5.49-4.73-5.49C5.38,56.9,6.9,21.91,6.9,21.91c.15-4.35,1.91-5.95,1.91-5.95,1.91-1.68,3.2-3.43,3.2-3.43,.91-1.6,2.1-2.1,2.1-2.1l9.64-3.32s.84-.31,1.98-.19Z"/>
</svg>